<svg width="200" height="180" viewBox="0 0 200 180" fill="none" xmlns="http://www.w3.org/2000/svg">
<path d="M78.5055 151.878C118.96 151.878 151.755 119.083 151.755 78.6279C151.755 38.173 118.96 5.3779 78.5055 5.3779C38.0506 5.3779 5.25546 38.173 5.25546 78.6279C5.25546 119.083 38.0506 151.878 78.5055 151.878Z" fill="url(#paint0_linear_8_2)" stroke="#B1E800" stroke-width="5"/>
<path d="M78.9777 80.2892C79.9718 80.2892 80.7777 79.4833 80.7777 78.4892C80.7777 77.4951 79.9718 76.6892 78.9777 76.6892C77.9836 76.6892 77.1777 77.4951 77.1777 78.4892C77.1777 79.4833 77.9836 80.2892 78.9777 80.2892Z" fill="#B1E800"/>
<path d="M166.394 175.189C181.874 175.189 194.422 162.641 194.422 147.161C194.422 131.682 181.874 119.134 166.394 119.134C150.915 119.134 138.367 131.682 138.367 147.161C138.367 162.641 150.915 175.189 166.394 175.189Z" fill="url(#paint1_linear_8_2)" stroke="#B1E800" stroke-width="5"/>
<path d="M166.5 148.8C167.494 148.8 168.3 147.994 168.3 147C168.3 146.006 167.494 145.2 166.5 145.2C165.506 145.2 164.7 146.006 164.7 147C164.7 147.994 165.506 148.8 166.5 148.8Z" fill="#B1E800"/>
<path d="M28.8388 172.3C35.2361 172.3 40.4221 167.114 40.4221 160.717C40.4221 154.32 35.2361 149.134 28.8388 149.134C22.4415 149.134 17.2555 154.32 17.2555 160.717C17.2555 167.114 22.4415 172.3 28.8388 172.3Z" fill="url(#paint2_linear_8_2)" stroke="#B1E800" stroke-width="5"/>
<path d="M29 162.3C29.9941 162.3 30.8 161.494 30.8 160.5C30.8 159.506 29.9941 158.7 29 158.7C28.0059 158.7 27.2 159.506 27.2 160.5C27.2 161.494 28.0059 162.3 29 162.3Z" fill="#B1E800"/>
<path d="M170.27 47.8345C178.014 47.8345 184.292 41.1743 184.292 32.9585C184.292 24.7427 178.014 18.0825 170.27 18.0825C162.525 18.0825 156.247 24.7427 156.247 32.9585C156.247 41.1743 162.525 47.8345 170.27 47.8345Z" fill="url(#paint3_linear_8_2)" stroke="#B1E800" stroke-width="5"/>
<path d="M170.5 34.8C171.494 34.8 172.3 33.9941 172.3 33C172.3 32.0059 171.494 31.2 170.5 31.2C169.506 31.2 168.7 32.0059 168.7 33C168.7 33.9941 169.506 34.8 170.5 34.8Z" fill="#B1E800"/>
<defs>
<linearGradient id="paint0_linear_8_2" x1="5.25546" y1="151.878" x2="151.755" y2="5.37791" gradientUnits="userSpaceOnUse">
<stop offset="0.37" stop-color="#ECFFB5" stop-opacity="0.99219"/>
<stop offset="1" stop-color="#BFF000"/>
</linearGradient>
<linearGradient id="paint1_linear_8_2" x1="138.367" y1="175.189" x2="194.422" y2="119.134" gradientUnits="userSpaceOnUse">
<stop offset="0.37" stop-color="#ECFFB5" stop-opacity="0.99219"/>
<stop offset="1" stop-color="#BFF000"/>
</linearGradient>
<linearGradient id="paint2_linear_8_2" x1="17.2555" y1="172.3" x2="40.4221" y2="149.134" gradientUnits="userSpaceOnUse">
<stop offset="0.37" stop-color="#ECFFB5" stop-opacity="0.99219"/>
<stop offset="1" stop-color="#BFF000"/>
</linearGradient>
<linearGradient id="paint3_linear_8_2" x1="156.247" y1="47.8345" x2="185.947" y2="19.8387" gradientUnits="userSpaceOnUse">
<stop offset="0.37" stop-color="#ECFFB5" stop-opacity="0.99219"/>
<stop offset="1" stop-color="#BFF000"/>
</linearGradient>
</defs>
</svg>
